<svg width="117" height="15" viewBox="0 0 117 15" fill="none" xmlns="http://www.w3.org/2000/svg">
<path d="M7.155 6.015C8.22 5.49 8.535 4.425 8.535 3.63C8.52 2.055 7.47 0.9 5.25 0.9H0V1.86L1.26 2.235V11.7H5.55C7.83 11.7 9.03 10.32 9.03 8.61C9.03 7.23 8.265 6.315 7.155 6.015ZM3.24 2.505H4.89C6.15 2.505 6.66 2.985 6.645 4.005C6.63 4.995 6.015 5.49 4.89 5.49H3.24V2.505ZM5.085 10.095H3.24V6.915H5.265C6.285 6.915 7.05 7.275 7.05 8.475C7.05 9.6 6.435 10.095 5.085 10.095Z" fill="white"/>
<path d="M14.4068 11.88C16.6868 11.88 18.2618 10.245 18.2618 7.92C18.2618 5.595 16.6868 3.99 14.4068 3.99C12.1268 3.99 10.5518 5.595 10.5518 7.92C10.5518 10.245 12.1268 11.88 14.4068 11.88ZM14.4068 10.41C13.2668 10.41 12.4418 9.54 12.4418 7.92C12.4418 6.3 13.2518 5.46 14.4068 5.46C15.5618 5.46 16.3718 6.3 16.3718 7.92C16.3718 9.54 15.5468 10.41 14.4068 10.41Z" fill="white"/>
<path d="M23.5328 11.88C25.8128 11.88 27.3878 10.245 27.3878 7.92C27.3878 5.595 25.8128 3.99 23.5328 3.99C21.2528 3.99 19.6778 5.595 19.6778 7.92C19.6778 10.245 21.2528 11.88 23.5328 11.88ZM23.5328 10.41C22.3928 10.41 21.5678 9.54 21.5678 7.92C21.5678 6.3 22.3778 5.46 23.5328 5.46C24.6878 5.46 25.4978 6.3 25.4978 7.92C25.4978 9.54 24.6728 10.41 23.5328 10.41Z" fill="white"/>
<path d="M33.6216 7.71L33.4716 7.575L33.6216 7.44L35.9766 4.2H33.9366L32.1216 6.84H31.1466L31.1616 0H28.4016V0.795L29.2866 1.08V11.7H31.1466V8.31H32.0616L34.2366 11.7H36.3816L33.6216 7.71Z" fill="white"/>
<path d="M47.6573 4.2L45.6923 9.57L43.5623 4.2H41.6573L44.4773 11.085H45.1373L43.5473 15H45.4673L49.5773 4.2H47.6573Z" fill="white"/>
<path d="M54.1627 11.88C56.4427 11.88 58.0177 10.245 58.0177 7.92C58.0177 5.595 56.4427 3.99 54.1627 3.99C51.8827 3.99 50.3077 5.595 50.3077 7.92C50.3077 10.245 51.8827 11.88 54.1627 11.88ZM54.1627 10.41C53.0227 10.41 52.1977 9.54 52.1977 7.92C52.1977 6.3 53.0077 5.46 54.1627 5.46C55.3177 5.46 56.1277 6.3 56.1277 7.92C56.1277 9.54 55.3027 10.41 54.1627 10.41Z" fill="white"/>
<path d="M66.6786 10.62V4.2H64.8186V9.315C64.1886 9.915 63.6036 10.305 62.8986 10.245C62.0586 10.185 61.7436 9.6 61.7436 8.7V4.2H59.8836V9.285C59.8836 11.055 60.9036 11.91 62.1786 11.91C63.0936 11.91 64.0236 11.46 64.9086 10.605L65.0436 11.7H67.5786V10.905L66.6786 10.62Z" fill="white"/>
<path d="M71.2986 5.4L71.1636 4.2H68.6286V4.995L69.5286 5.28V11.7H71.3886V7.02C72.2586 6.075 73.0386 5.46 74.1486 5.67L74.3136 4.08C73.0386 3.75 72.1686 4.455 71.2986 5.4Z" fill="white"/>
<path d="M81.1137 9.675C81.1887 8.34 80.1537 7.785 79.0887 7.365C78.0837 6.975 77.1087 6.84 77.1087 6.165C77.1087 5.22 78.9537 5.28 80.4687 5.85L80.7837 4.485C78.8337 3.675 75.4587 3.66 75.3537 6.135C75.2937 7.425 76.2537 7.98 77.3787 8.415C78.5337 8.865 79.3737 9.015 79.3437 9.645C79.3137 10.815 77.2737 10.545 75.5937 9.945L75.2787 11.325C77.4387 12.27 80.9937 12.285 81.1137 9.675Z" fill="white"/>
<path d="M92.258 3.99C91.298 3.99 90.203 4.5 89.243 5.43L89.093 4.2H86.558V4.995L87.458 5.28V11.7H89.318V6.705C90.053 6.045 90.773 5.595 91.523 5.655C92.393 5.7 92.753 6.285 92.753 7.2V11.7H94.613V6.615C94.613 4.83 93.563 3.99 92.258 3.99Z" fill="white"/>
<path d="M100.305 11.88C102.585 11.88 104.16 10.245 104.16 7.92C104.16 5.595 102.585 3.99 100.305 3.99C98.0252 3.99 96.4502 5.595 96.4502 7.92C96.4502 10.245 98.0252 11.88 100.305 11.88ZM100.305 10.41C99.1652 10.41 98.3402 9.54 98.3402 7.92C98.3402 6.3 99.1502 5.46 100.305 5.46C101.46 5.46 102.27 6.3 102.27 7.92C102.27 9.54 101.445 10.41 100.305 10.41Z" fill="white"/>
<path d="M114.765 4.2L113.115 9.54L113.01 10.035L112.92 9.54L111.45 4.2H109.53L110.01 5.595L108.54 9.54L108.465 9.9L108.405 9.54L106.815 4.2H104.895L107.475 11.7H109.35L110.745 7.815L112.05 11.7H113.925L116.58 4.2H114.765Z" fill="white"/>
</svg>
