<svg width="215" height="61" viewBox="0 0 215 61" fill="none" xmlns="http://www.w3.org/2000/svg">
<path d="M41.7983 2.24753H35.1983V2.21753H31.2383V2.24753H24.6983V5.42753H31.2383V23.8175H35.1983V5.42753H41.7983V2.24753Z" fill="white"/>
<path d="M55.25 8.39753C53.36 8.39753 51.26 9.29753 49.37 11.0375V0.41753H43.85V2.00753L45.62 2.57753V23.8175H49.37V13.7375C50.84 12.4775 52.34 11.6975 53.78 11.7275C55.49 11.7275 56.24 12.8975 56.24 14.8175V23.8175H59.96V13.6475C59.96 10.0775 57.86 8.39753 55.25 8.39753Z" fill="white"/>
<path d="M71.2895 24.2375C73.6295 24.2675 75.6695 23.5475 76.9595 22.6475L76.3595 20.0975C75.0095 20.7575 73.3895 21.2075 71.7695 21.2075C69.0095 21.1775 67.3295 19.7975 67.2995 17.1875H77.1395C78.1295 12.6575 76.3895 8.45753 71.1095 8.39753C66.8195 8.33753 63.6395 11.3675 63.6095 16.2275C63.5795 20.6975 66.1895 24.2075 71.2895 24.2375ZM67.4195 14.8175C67.5995 12.6275 69.0395 11.3075 71.0495 11.3375C73.4795 11.3375 74.1395 12.9575 73.9595 14.8175H67.4195Z" fill="white"/>
<path d="M99.355 8.39753C97.315 8.39753 95.575 9.56753 94.165 10.9775L93.895 8.81753H88.825V10.4075L90.625 10.9775V30.4175H94.345V22.1375C95.755 23.3375 97.375 24.2375 99.265 24.2375C103.315 24.2375 105.955 21.0275 105.955 16.3475C105.955 11.7275 103.255 8.39753 99.355 8.39753ZM97.705 21.1775C96.625 21.0275 95.455 20.2775 94.345 19.3775V13.5575C95.425 12.5375 96.595 11.6675 97.705 11.4575C100.015 11.1275 102.145 12.7775 102.175 16.3175C102.205 19.9775 100.075 21.4775 97.705 21.1775Z" fill="white"/>
<path d="M116.465 24.2375C118.805 24.2675 120.845 23.5475 122.135 22.6475L121.535 20.0975C120.185 20.7575 118.565 21.2075 116.945 21.2075C114.185 21.1775 112.505 19.7975 112.475 17.1875H122.315C123.305 12.6575 121.565 8.45753 116.285 8.39753C111.995 8.33753 108.815 11.3675 108.785 16.2275C108.755 20.6975 111.365 24.2075 116.465 24.2375ZM112.595 14.8175C112.775 12.6275 114.215 11.3075 116.225 11.3375C118.655 11.3375 119.315 12.9575 119.135 14.8175H112.595Z" fill="white"/>
<path d="M130.377 11.2175L130.107 8.81753H125.037V10.4075L126.837 10.9775V23.8175H130.557V14.4575C132.297 12.5675 133.857 11.3375 136.077 11.7575L136.407 8.57753C133.857 7.91753 132.117 9.32753 130.377 11.2175Z" fill="white"/>
<path d="M148.777 3.35753L149.437 0.53753C142.417 -1.35247 140.437 2.06753 140.437 5.72753V8.81753H138.127V11.5775H140.437V23.8175H144.157V11.5775H147.907V8.81753H144.157V5.66753C144.157 3.71753 145.117 2.45753 148.777 3.35753Z" fill="white"/>
<path d="M156.836 24.2375C159.176 24.2675 161.216 23.5475 162.506 22.6475L161.906 20.0975C160.556 20.7575 158.936 21.2075 157.316 21.2075C154.556 21.1775 152.876 19.7975 152.846 17.1875H162.686C163.676 12.6575 161.936 8.45753 156.656 8.39753C152.366 8.33753 149.186 11.3675 149.156 16.2275C149.126 20.6975 151.736 24.2075 156.836 24.2375ZM152.966 14.8175C153.146 12.6275 154.586 11.3075 156.596 11.3375C159.026 11.3375 159.686 12.9575 159.506 14.8175H152.966Z" fill="white"/>
<path d="M173.177 24.2375C175.157 24.2375 177.017 23.6675 178.697 22.7675L178.067 20.0675C177.047 20.5775 175.307 21.3875 173.657 21.2975C170.867 21.1775 169.577 18.9575 169.577 16.3175C169.577 13.4375 170.957 11.3375 173.567 11.3075C175.067 11.2775 176.507 11.9675 177.647 12.5975L178.277 9.92753C176.897 9.05753 175.037 8.39753 173.027 8.39753C168.557 8.39753 165.797 11.6975 165.797 16.3175C165.797 20.9375 168.557 24.2375 173.177 24.2375Z" fill="white"/>
<path d="M190.919 20.7575C187.709 21.7475 186.929 20.6075 186.929 18.6575V11.5775H190.109V8.81753H186.929V5.21753H183.209V8.63753L180.599 9.92753V11.5775H183.209V19.2275C183.209 22.5275 185.459 25.6475 191.549 23.5475L190.919 20.7575Z" fill="white"/>
<path d="M8.13 34.2875L6.36 31.1675L3.21 33.0275L5.04 36.1475L8.13 34.2875ZM7.62 38.8175H2.13V40.4075L3.9 40.9775V55.1075C3.9 56.9675 3.63 58.3175 0.63 57.6875L0 60.5375C6.57 61.9775 7.62 58.2575 7.62 55.0175V38.8175Z" fill="white"/>
<path d="M19.3615 54.1775C23.9215 54.1775 27.0715 50.9075 27.0715 46.2575C27.0715 41.6075 23.9215 38.3975 19.3615 38.3975C14.8015 38.3975 11.6515 41.6075 11.6515 46.2575C11.6515 50.9075 14.8015 54.1775 19.3615 54.1775ZM19.3615 51.2375C17.0815 51.2375 15.4315 49.4975 15.4315 46.2575C15.4315 43.0175 17.0515 41.3375 19.3615 41.3375C21.6715 41.3375 23.2915 43.0175 23.2915 46.2575C23.2915 49.4975 21.6415 51.2375 19.3615 51.2375Z" fill="white"/>
<path d="M44.3934 51.6575V38.8175H40.6734V49.0475C39.4134 50.2475 38.2434 51.0275 36.8334 50.9075C35.1534 50.7875 34.5234 49.6175 34.5234 47.8175V38.8175H30.8034V48.9875C30.8034 52.5275 32.8434 54.2375 35.3934 54.2375C37.2234 54.2375 39.0834 53.3375 40.8534 51.6275L41.1234 53.8175H46.1934V52.2275L44.3934 51.6575Z" fill="white"/>
<path d="M53.6334 41.2175L53.3634 38.8175H48.2934V40.4075L50.0934 40.9775V53.8175H53.8134V44.4575C55.5534 42.5675 57.1134 41.3375 59.3334 41.7575L59.6634 38.5775C57.1134 37.9175 55.3734 39.3275 53.6334 41.2175Z" fill="white"/>
<path d="M72.9935 38.3975C71.0735 38.3975 68.8835 39.4175 66.9635 41.2775L66.6635 38.8175H61.5935V40.4075L63.3935 40.9775V53.8175H67.1135V43.8275C68.5835 42.5075 70.0235 41.6075 71.5235 41.7275C73.2635 41.8175 73.9835 42.9875 73.9835 44.8175V53.8175H77.7035V43.6475C77.7035 40.0775 75.6035 38.3975 72.9935 38.3975Z" fill="white"/>
<path d="M89.058 54.2375C91.398 54.2675 93.4381 53.5475 94.7281 52.6475L94.128 50.0975C92.778 50.7575 91.158 51.2075 89.538 51.2075C86.778 51.1775 85.098 49.7975 85.068 47.1875H94.9081C95.8981 42.6575 94.158 38.4575 88.878 38.3975C84.588 38.3375 81.408 41.3675 81.378 46.2275C81.348 50.6975 83.958 54.2075 89.058 54.2375ZM85.188 44.8175C85.368 42.6275 86.808 41.3075 88.818 41.3375C91.248 41.3375 91.9081 42.9575 91.7281 44.8175H85.188Z" fill="white"/>
<path d="M108.978 38.8175L105.048 49.5575L100.788 38.8175H96.9778L102.618 52.5875H103.938L100.758 60.4175H104.598L112.818 38.8175H108.978Z" fill="white"/>
<path d="M127.996 54.2375C130.066 54.3275 131.686 53.0975 133.186 51.7175L133.396 53.8175H138.466V52.2275L136.636 51.6875L136.666 42.7175C136.666 37.6175 130.456 37.8575 125.476 39.4475L126.136 42.1775C130.456 40.9775 133.036 41.0675 133.036 43.3775V44.6375C129.136 44.4575 126.436 44.4275 124.786 46.1975C122.746 48.2375 123.106 54.0275 127.996 54.2375ZM129.106 51.3875C127.036 51.1775 126.976 48.8075 127.786 47.8475C128.506 46.8575 130.186 46.8575 132.946 46.9775L132.916 49.6775C131.956 50.5175 130.636 51.5375 129.106 51.3875Z" fill="white"/>
<path d="M159.228 38.8175L155.928 49.4975L155.718 50.4875L155.538 49.4975L152.598 38.8175H148.758L149.718 41.6075L146.778 49.4975L146.628 50.2175L146.508 49.4975L143.328 38.8175H139.488L144.648 53.8175H148.398L151.188 46.0475L153.798 53.8175H157.548L162.858 38.8175H159.228Z" fill="white"/>
<path d="M168.601 54.2375C170.671 54.3275 172.291 53.0975 173.791 51.7175L174.001 53.8175H179.071V52.2275L177.241 51.6875L177.271 42.7175C177.271 37.6175 171.061 37.8575 166.081 39.4475L166.741 42.1775C171.061 40.9775 173.641 41.0675 173.641 43.3775V44.6375C169.741 44.4575 167.041 44.4275 165.391 46.1975C163.351 48.2375 163.711 54.0275 168.601 54.2375ZM169.711 51.3875C167.641 51.1775 167.581 48.8075 168.391 47.8475C169.111 46.8575 170.791 46.8575 173.551 46.9775L173.521 49.6775C172.561 50.5175 171.241 51.5375 169.711 51.3875Z" fill="white"/>
<path d="M187.125 34.2275L185.385 31.1675L182.295 32.9975L184.095 36.0575L187.125 34.2275ZM186.675 38.8175H181.155V40.4075L182.925 40.9775V53.8175H186.675V38.8175Z" fill="white"/>
<path d="M199.987 50.7575C196.777 51.7475 195.997 50.6075 195.997 48.6575V41.5775H199.177V38.8175H195.997V35.2175H192.277V38.6375L189.667 39.9275V41.5775H192.277V49.2275C192.277 52.5275 194.527 55.6475 200.617 53.5475L199.987 50.7575Z" fill="white"/>
<path d="M214.006 49.7675C214.156 47.0975 212.086 45.9875 209.956 45.1475C207.946 44.3675 205.996 44.0975 205.996 42.7475C205.996 40.8575 209.686 40.9775 212.716 42.1175L213.346 39.3875C209.446 37.7675 202.696 37.7375 202.486 42.6875C202.366 45.2675 204.286 46.3775 206.536 47.2475C208.846 48.1475 210.526 48.4475 210.466 49.7075C210.406 52.0475 206.326 51.5075 202.966 50.3075L202.336 53.0675C206.656 54.9575 213.766 54.9875 214.006 49.7675Z" fill="white"/>
</svg>
